<?xml version="1.0" encoding="UTF-8"?>
<svg version="1.1" xmlns="http://www.w3.org/2000/svg" width="238" height="125">
<path d="M0 0 C5.13021055 2.33960152 8.92542742 6.52171654 12.875 10.4375 C13.57625 11.10587891 14.2775 11.77425781 15 12.46289062 C15.98613281 13.43838867 15.98613281 13.43838867 16.9921875 14.43359375 C17.59401855 15.02197021 18.19584961 15.61034668 18.81591797 16.21655273 C20 18 20 18 19.90185547 19.97973633 C18.04521633 24.13882915 14.43486815 27.07634617 11.25 30.25 C10.53328125 30.99507812 9.8165625 31.74015625 9.078125 32.5078125 C8.02625 33.56355469 8.02625 33.56355469 6.953125 34.640625 C6.31536133 35.28547852 5.67759766 35.93033203 5.02050781 36.59472656 C2.51710712 38.33585445 0.9860756 38.2782862 -2 38 C-2.9375 35.9375 -2.9375 35.9375 -3 33 C0.03337761 28.99348679 3.96871969 25.9497173 8 23 C2.24063811 22.88056623 -3.49750631 23.00716594 -9.25 23.3125 C-10.95929688 23.39951172 -10.95929688 23.39951172 -12.703125 23.48828125 C-17.55166393 24.24083883 -20.81314373 25.51279642 -23.9140625 29.3984375 C-24.76097656 30.87183594 -24.76097656 30.87183594 -25.625 32.375 C-25.95145508 32.93316406 -26.27791016 33.49132813 -26.61425781 34.06640625 C-27.7592484 36.03524432 -28.87912844 38.01733911 -30 40 C-30.91820574 41.59696703 -31.83753764 43.19328693 -32.7578125 44.7890625 C-36.95105344 52.08455221 -41.12845268 59.38497802 -45.15625 66.7734375 C-45.67477539 67.711875 -46.19330078 68.6503125 -46.72753906 69.6171875 C-47.71126355 71.39912333 -48.68287711 73.18782336 -49.63964844 74.984375 C-53.46380803 81.86731944 -57.89231742 87.23463342 -65.25390625 90.3984375 C-70.47885236 91.23747994 -75.65294068 91.46754572 -80.9375 91.625 C-82.53561523 91.68300781 -82.53561523 91.68300781 -84.16601562 91.7421875 C-86.77717734 91.83586146 -89.38834304 91.92158335 -92 92 C-91.26652344 92.67546875 -90.53304687 93.3509375 -89.77734375 94.046875 C-88.37162109 95.38492188 -88.37162109 95.38492188 -86.9375 96.75 C-85.99777344 97.63171875 -85.05804688 98.5134375 -84.08984375 99.421875 C-82 102 -82 102 -82.19140625 104.328125 C-83 106 -83 106 -84.77709961 106.69238281 C-87 107 -87 107 -88.78344727 105.78417969 C-89.66601196 104.86233887 -89.66601196 104.86233887 -90.56640625 103.921875 C-91.5419043 102.92220703 -91.5419043 102.92220703 -92.53710938 101.90234375 C-93.20548828 101.19207031 -93.87386719 100.48179688 -94.5625 99.75 C-95.23474609 99.05519531 -95.90699219 98.36039062 -96.59960938 97.64453125 C-97.85416176 96.34637476 -99.10351509 95.04315957 -100.34594727 93.73339844 C-101.43807501 92.5888808 -102.56335797 91.4750092 -103.72070312 90.39648438 C-104.14287109 89.93564453 -104.56503906 89.47480469 -105 89 C-104.82210042 85.44200833 -103.03784971 83.65844837 -100.5625 81.25 C-99.94503906 80.63640625 -99.32757813 80.0228125 -98.69140625 79.390625 C-97 78 -97 78 -95 78 C-94.773125 77.443125 -94.54625 76.88625 -94.3125 76.3125 C-92.58759086 73.27337436 -90.67850171 71.24246655 -88 69 C-85.1875 68.6875 -85.1875 68.6875 -83 69 C-82.23046875 71.203125 -82.23046875 71.203125 -82 74 C-83.80078125 76.421875 -83.80078125 76.421875 -86.3125 78.75 C-87.54419922 79.91789062 -87.54419922 79.91789062 -88.80078125 81.109375 C-91 83 -91 83 -93 84 C-89.29181703 84.08756305 -85.58390237 84.14058015 -81.875 84.1875 C-80.82828125 84.21263672 -79.7815625 84.23777344 -78.703125 84.26367188 C-70.90026603 84.3649623 -70.90026603 84.3649623 -64 81 C-59.04143942 76.0258219 -56.02155538 69.94249088 -52.6875 63.8125 C-51.45001391 61.5821684 -50.21034727 59.35304558 -48.96875 57.125 C-48.64815109 56.54905594 -48.32755219 55.97311188 -47.99723816 55.37971497 C-46.99877891 53.58613049 -45.99940818 51.79305586 -45 50 C-44.6606543 49.3901123 -44.32130859 48.78022461 -43.97167969 48.15185547 C-41.9081276 44.44891511 -39.82106238 40.76085438 -37.70401001 37.08822632 C-36.71129681 35.3540703 -35.74048332 33.60743583 -34.77026367 31.8605957 C-30.31158219 24.17363234 -25.85211811 18.78770183 -17.1484375 16.12890625 C-12.30412615 15.93056596 -7.47286312 15.8968405 -2.625 15.9375 C-1.09166016 15.94426758 -1.09166016 15.94426758 0.47265625 15.95117188 C2.98183194 15.962897 5.4908849 15.97930824 8 16 C7.19433594 15.33613281 6.38867188 14.67226563 5.55859375 13.98828125 C4.51747546 13.09723406 3.47715159 12.20525806 2.4375 11.3125 C1.90447266 10.87744141 1.37144531 10.44238281 0.82226562 9.99414062 C-0.69140625 8.67578125 -0.69140625 8.67578125 -3 6 C-2.96484375 3.23046875 -2.96484375 3.23046875 -2 1 C-1.34 0.67 -0.68 0.34 0 0 Z " fill="#5B6169" transform="translate(122,17)"/>
<path d="M0 0 C2.125 0.9375 2.125 0.9375 4 2 C3.84825965 7.00743139 1.09792829 9.27547597 -2.30859375 12.546875 C-4 14 -4 14 -6 15 C-5.28457031 15.01458252 -4.56914062 15.02916504 -3.83203125 15.04418945 C-0.55417564 15.11919213 2.72271917 15.21567955 6 15.3125 C7.68802734 15.34633789 7.68802734 15.34633789 9.41015625 15.38085938 C17.51217344 15.64145057 24.95541568 16.18966076 30.9375 22.3125 C33.7771797 25.37261145 35.10026893 27.68843619 35 32 C34.34 32.66 33.68 33.32 33 34 C30.41632607 33.78643018 29.27964645 33.27894734 27.4375 31.44140625 C26.963125 30.82136719 26.48875 30.20132813 26 29.5625 C23.86408778 26.78233165 22.26418555 25.31607995 19 24 C16.09900073 23.63495312 16.09900073 23.63495312 12.921875 23.5859375 C11.76171875 23.54726563 10.6015625 23.50859375 9.40625 23.46875 C8.1996875 23.4378125 6.993125 23.406875 5.75 23.375 C4.52796875 23.33632813 3.3059375 23.29765625 2.046875 23.2578125 C-0.9685994 23.16357892 -3.98406828 23.07796545 -7 23 C-6.28972656 23.59167969 -5.57945313 24.18335937 -4.84765625 24.79296875 C-3.92855469 25.58316406 -3.00945313 26.37335937 -2.0625 27.1875 C-1.14597656 27.96480469 -0.22945312 28.74210937 0.71484375 29.54296875 C3.14170172 32.15235962 3.70843302 33.50739976 4 37 C2.35 37.66 0.7 38.32 -1 39 C-4.04094153 36.10369567 -7.05395095 33.17990886 -10.0625 30.25 C-10.92939453 29.425 -11.79628906 28.6 -12.68945312 27.75 C-13.50478516 26.95078125 -14.32011719 26.1515625 -15.16015625 25.328125 C-15.91949463 24.5949707 -16.67883301 23.86181641 -17.46118164 23.10644531 C-19 21 -19 21 -18.96044922 18.97045898 C-17.78355975 16.55595087 -16.38679915 15.03125157 -14.47265625 13.14453125 C-13.76302734 12.44005859 -13.05339844 11.73558594 -12.32226562 11.00976562 C-11.57654297 10.28466797 -10.83082031 9.55957031 -10.0625 8.8125 C-8.9497168 7.70745117 -8.9497168 7.70745117 -7.81445312 6.58007812 C-2.30902778 1.15451389 -2.30902778 1.15451389 0 0 Z " fill="#87CAFD" transform="translate(36,17)"/>
<path d="M0 0 C5.07489548 2.62630778 8.84397341 6.4052818 12.875 10.375 C13.57625 11.035 14.2775 11.695 15 12.375 C15.65742188 13.02210937 16.31484375 13.66921875 16.9921875 14.3359375 C17.59401855 14.91907715 18.19584961 15.5022168 18.81591797 16.10302734 C20 18 20 18 19.81689453 20.64697266 C19 23 19 23 16.9375 24.3125 C15.9784375 24.6528125 15.9784375 24.6528125 15 25 C15 25.66 15 26.32 15 27 C14.34 27 13.68 27 13 27 C12.773125 27.556875 12.54625 28.11375 12.3125 28.6875 C10.62314043 31.66399068 8.50247295 33.67627512 6 36 C5.34 36.61875 4.68 37.2375 4 37.875 C2 39 2 39 -0.75 38.6875 C-1.4925 38.460625 -2.235 38.23375 -3 38 C-2.58181281 33.12114941 -0.55070071 31.22040297 3 28 C4.33814676 26.67149754 5.67234035 25.33898297 7 24 C6.22398437 23.9906543 5.44796875 23.98130859 4.6484375 23.97167969 C1.09833713 23.91766563 -2.45048948 23.83407697 -6 23.75 C-7.22074219 23.73582031 -8.44148438 23.72164062 -9.69921875 23.70703125 C-17.9160026 23.48495601 -23.97487197 22.71493467 -30.12890625 17.03515625 C-34.02791796 11.67003114 -34.02791796 11.67003114 -33.875 8 C-33.58625 7.34 -33.2975 6.68 -33 6 C-32.01 5.67 -31.02 5.34 -30 5 C-29.29875 5.721875 -28.5975 6.44375 -27.875 7.1875 C-21.73204958 13.58608276 -21.73204958 13.58608276 -13.5480957 16.11352539 C-12.60023193 16.10828857 -11.65236816 16.10305176 -10.67578125 16.09765625 C-9.13374023 16.09282227 -9.13374023 16.09282227 -7.56054688 16.08789062 C-6.48869141 16.07951172 -5.41683594 16.07113281 -4.3125 16.0625 C-3.22904297 16.05798828 -2.14558594 16.05347656 -1.02929688 16.04882812 C1.64719085 16.03703743 4.32356777 16.02058063 7 16 C6.36191406 15.49210937 5.72382812 14.98421875 5.06640625 14.4609375 C-1.76672384 8.76843911 -1.76672384 8.76843911 -3.0625 4.5 C-3.041875 3.675 -3.02125 2.85 -3 2 C-2.01 1.34 -1.02 0.68 0 0 Z " fill="#88CBFE" transform="translate(122,85)"/>
<path d="M0 0 C0.721875 0.103125 1.44375 0.20625 2.1875 0.3125 C1.53394531 0.80234375 0.88039063 1.2921875 0.20703125 1.796875 C-3.81748566 5.14977136 -7.44480849 8.8395538 -11.125 12.5625 C-11.86556641 13.30757812 -12.60613281 14.05265625 -13.36914062 14.8203125 C-15.18589236 16.64878521 -17.00025796 18.47955936 -18.8125 20.3125 C-19.1425 19.3225 -19.4725 18.3325 -19.8125 17.3125 C-18.52701591 15.97320495 -17.23391845 14.64121357 -15.9375 13.3125 C-15.21820312 12.57 -14.49890625 11.8275 -13.7578125 11.0625 C-11.8125 9.3125 -11.8125 9.3125 -9.8125 9.3125 C-9.585625 8.755625 -9.35875 8.19875 -9.125 7.625 C-6.9016471 3.70766394 -4.64913325 0.51657036 0 0 Z " fill="#8E9297" transform="translate(36.8125,85.6875)"/>
<path d="M0 0 C-1.34480376 3.00735841 -2.82783179 5.0585216 -5.1875 7.34765625 C-5.80367187 7.95287109 -6.41984375 8.55808594 -7.0546875 9.18164062 C-7.69664063 9.80232422 -8.33859375 10.42300781 -9 11.0625 C-10.27308578 12.30107442 -11.54400932 13.54187616 -12.8125 14.78515625 C-13.37582031 15.33051025 -13.93914063 15.87586426 -14.51953125 16.43774414 C-16.2143664 18.1377109 -16.2143664 18.1377109 -18 21 C-18.72192383 19.25683594 -18.72192383 19.25683594 -19 17 C-17.5847168 14.98535156 -17.5847168 14.98535156 -15.44921875 12.890625 C-14.68802734 12.13652344 -13.92683594 11.38242187 -13.14257812 10.60546875 C-12.33240234 9.82816406 -11.52222656 9.05085938 -10.6875 8.25 C-9.88892578 7.45722656 -9.09035156 6.66445313 -8.26757812 5.84765625 C-2.29411171 0 -2.29411171 0 0 0 Z " fill="#9BD2FC" transform="translate(36,18)"/>
</svg>
